<mxfile host="Electron" agent="Mozilla/5.0 (X11; Linux x86_64) AppleWebKit/537.36 (KHTML, like Gecko) draw.io/26.2.2 Chrome/134.0.6998.178 Electron/35.1.2 Safari/537.36" version="26.2.2">
  <diagram name="Страница — 1" id="nc0Fr-21nmKREP6-mE5-">
    <mxGraphModel dx="1754" dy="1020" grid="1" gridSize="10" guides="1" tooltips="1" connect="1" arrows="1" fold="1" page="1" pageScale="1" pageWidth="827" pageHeight="1169" math="0" shadow="0">
      <root>
        <mxCell id="0" />
        <mxCell id="1" parent="0" />
        <mxCell id="h_y6wSZMJjbolM3k-8ne-38" value="" style="rounded=0;whiteSpace=wrap;html=1;fillColor=#dae8fc;strokeColor=#6c8ebf;" parent="1" vertex="1">
          <mxGeometry x="34" y="320" width="760" height="670" as="geometry" />
        </mxCell>
        <mxCell id="h_y6wSZMJjbolM3k-8ne-100" value="" style="rounded=1;whiteSpace=wrap;html=1;fillColor=#fff2cc;strokeColor=#d6b656;" parent="1" vertex="1">
          <mxGeometry x="44" y="810" width="740" height="170" as="geometry" />
        </mxCell>
        <mxCell id="h_y6wSZMJjbolM3k-8ne-28" value="&lt;font style=&quot;font-size: 16px;&quot;&gt;workflow&lt;/font&gt;&lt;div&gt;&lt;font style=&quot;font-size: 16px;&quot;&gt;рабочий процесс&lt;/font&gt;&lt;/div&gt;" style="rounded=1;whiteSpace=wrap;html=1;fillColor=#ffe6cc;strokeColor=#d79b00;" parent="1" vertex="1">
          <mxGeometry x="314" y="670" width="200" height="80" as="geometry" />
        </mxCell>
        <mxCell id="h_y6wSZMJjbolM3k-8ne-47" style="edgeStyle=orthogonalEdgeStyle;rounded=0;orthogonalLoop=1;jettySize=auto;html=1;" parent="1" source="h_y6wSZMJjbolM3k-8ne-29" target="h_y6wSZMJjbolM3k-8ne-31" edge="1">
          <mxGeometry relative="1" as="geometry" />
        </mxCell>
        <mxCell id="h_y6wSZMJjbolM3k-8ne-29" value="&lt;div&gt;&lt;span style=&quot;font-size: 16px;&quot;&gt;worker&lt;/span&gt;&lt;/div&gt;&lt;div&gt;&lt;span style=&quot;font-size: 16px; background-color: transparent; color: light-dark(rgb(0, 0, 0), rgb(255, 255, 255));&quot;&gt;регистратор -&amp;nbsp;&lt;/span&gt;&lt;span style=&quot;font-size: 16px; background-color: transparent; color: light-dark(rgb(0, 0, 0), rgb(255, 255, 255));&quot;&gt;рабочий&lt;/span&gt;&lt;/div&gt;" style="rounded=1;whiteSpace=wrap;html=1;fillColor=#ffe6cc;strokeColor=#d79b00;" parent="1" vertex="1">
          <mxGeometry x="321.5" y="420" width="185" height="80" as="geometry" />
        </mxCell>
        <mxCell id="h_y6wSZMJjbolM3k-8ne-48" style="edgeStyle=orthogonalEdgeStyle;rounded=0;orthogonalLoop=1;jettySize=auto;html=1;entryX=0.5;entryY=0;entryDx=0;entryDy=0;" parent="1" source="h_y6wSZMJjbolM3k-8ne-31" target="h_y6wSZMJjbolM3k-8ne-28" edge="1">
          <mxGeometry relative="1" as="geometry" />
        </mxCell>
        <mxCell id="h_y6wSZMJjbolM3k-8ne-49" style="edgeStyle=orthogonalEdgeStyle;rounded=0;orthogonalLoop=1;jettySize=auto;html=1;" parent="1" source="h_y6wSZMJjbolM3k-8ne-31" target="h_y6wSZMJjbolM3k-8ne-35" edge="1">
          <mxGeometry relative="1" as="geometry" />
        </mxCell>
        <mxCell id="h_y6wSZMJjbolM3k-8ne-50" style="edgeStyle=orthogonalEdgeStyle;rounded=0;orthogonalLoop=1;jettySize=auto;html=1;" parent="1" source="h_y6wSZMJjbolM3k-8ne-31" target="h_y6wSZMJjbolM3k-8ne-36" edge="1">
          <mxGeometry relative="1" as="geometry" />
        </mxCell>
        <mxCell id="h_y6wSZMJjbolM3k-8ne-31" value="&lt;div&gt;&lt;font style=&quot;font-size: 16px;&quot;&gt;task&lt;/font&gt;&lt;/div&gt;&lt;font style=&quot;font-size: 16px;&quot;&gt;задача&lt;/font&gt;" style="ellipse;whiteSpace=wrap;html=1;aspect=fixed;" parent="1" vertex="1">
          <mxGeometry x="374" y="530" width="80" height="80" as="geometry" />
        </mxCell>
        <mxCell id="h_y6wSZMJjbolM3k-8ne-35" value="&lt;font style=&quot;font-size: 16px;&quot;&gt;workflow&lt;/font&gt;&lt;div&gt;&lt;font style=&quot;font-size: 16px;&quot;&gt;рабочий процесс&lt;/font&gt;&lt;/div&gt;" style="rounded=1;whiteSpace=wrap;html=1;fillColor=#ffe6cc;strokeColor=#d79b00;" parent="1" vertex="1">
          <mxGeometry x="64" y="670" width="200" height="80" as="geometry" />
        </mxCell>
        <mxCell id="h_y6wSZMJjbolM3k-8ne-36" value="&lt;font style=&quot;font-size: 16px;&quot;&gt;workflow&lt;/font&gt;&lt;div&gt;&lt;font style=&quot;font-size: 16px;&quot;&gt;рабочий процесс&lt;/font&gt;&lt;/div&gt;" style="rounded=1;whiteSpace=wrap;html=1;fillColor=#ffe6cc;strokeColor=#d79b00;" parent="1" vertex="1">
          <mxGeometry x="554" y="670" width="200" height="80" as="geometry" />
        </mxCell>
        <mxCell id="h_y6wSZMJjbolM3k-8ne-41" value="&lt;font style=&quot;font-size: 18px;&quot;&gt;&lt;b&gt;temporal&lt;/b&gt;&lt;/font&gt;" style="ellipse;shape=cloud;whiteSpace=wrap;html=1;fillColor=#d5e8d4;strokeColor=#82b366;" parent="1" vertex="1">
          <mxGeometry x="306.5" y="40" width="200" height="130" as="geometry" />
        </mxCell>
        <mxCell id="h_y6wSZMJjbolM3k-8ne-69" value="" style="html=1;shadow=0;dashed=0;align=center;verticalAlign=middle;shape=mxgraph.arrows2.arrow;dy=0.6;dx=40;direction=north;notch=0;fillColor=#f5f5f5;gradientColor=#b3b3b3;strokeColor=#666666;gradientDirection=east;" parent="1" vertex="1">
          <mxGeometry x="374" y="180" width="70" height="110" as="geometry" />
        </mxCell>
        <mxCell id="h_y6wSZMJjbolM3k-8ne-71" value="&lt;font style=&quot;font-size: 16px;&quot;&gt;&lt;b&gt;GRPC&lt;/b&gt;&lt;/font&gt;" style="text;html=1;align=center;verticalAlign=middle;whiteSpace=wrap;rounded=0;" parent="1" vertex="1">
          <mxGeometry x="379" y="290" width="60" height="30" as="geometry" />
        </mxCell>
        <mxCell id="h_y6wSZMJjbolM3k-8ne-76" value="&lt;font style=&quot;font-size: 16px;&quot;&gt;activity&lt;/font&gt;&lt;div&gt;&lt;font style=&quot;font-size: 16px;&quot;&gt;команда, действие&lt;/font&gt;&amp;nbsp;&lt;/div&gt;" style="rounded=1;whiteSpace=wrap;html=1;fillColor=#fff2cc;strokeColor=#d6b656;" parent="1" vertex="1">
          <mxGeometry x="84" y="830" width="160" height="50" as="geometry" />
        </mxCell>
        <mxCell id="h_y6wSZMJjbolM3k-8ne-77" value="&lt;font style=&quot;font-size: 16px;&quot;&gt;activity&lt;/font&gt;&lt;div&gt;&lt;font style=&quot;font-size: 16px;&quot;&gt;команда, действие&lt;/font&gt;&amp;nbsp;&lt;/div&gt;" style="rounded=1;whiteSpace=wrap;html=1;fillColor=#fff2cc;strokeColor=#d6b656;" parent="1" vertex="1">
          <mxGeometry x="84" y="900" width="160" height="50" as="geometry" />
        </mxCell>
        <mxCell id="h_y6wSZMJjbolM3k-8ne-82" value="&lt;font style=&quot;font-size: 16px;&quot;&gt;activity&lt;/font&gt;&lt;div&gt;&lt;font style=&quot;font-size: 16px;&quot;&gt;команда, действие&lt;/font&gt;&amp;nbsp;&lt;/div&gt;" style="rounded=1;whiteSpace=wrap;html=1;fillColor=#fff2cc;strokeColor=#d6b656;" parent="1" vertex="1">
          <mxGeometry x="574" y="830" width="160" height="50" as="geometry" />
        </mxCell>
        <mxCell id="h_y6wSZMJjbolM3k-8ne-83" value="&lt;font style=&quot;font-size: 16px;&quot;&gt;activity&lt;/font&gt;&lt;div&gt;&lt;font style=&quot;font-size: 16px;&quot;&gt;команда, действие&lt;/font&gt;&amp;nbsp;&lt;/div&gt;" style="rounded=1;whiteSpace=wrap;html=1;fillColor=#fff2cc;strokeColor=#d6b656;" parent="1" vertex="1">
          <mxGeometry x="578" y="900" width="160" height="50" as="geometry" />
        </mxCell>
        <mxCell id="h_y6wSZMJjbolM3k-8ne-102" style="edgeStyle=orthogonalEdgeStyle;rounded=0;orthogonalLoop=1;jettySize=auto;html=1;" parent="1" source="h_y6wSZMJjbolM3k-8ne-28" edge="1">
          <mxGeometry relative="1" as="geometry">
            <mxPoint x="414" y="810" as="targetPoint" />
          </mxGeometry>
        </mxCell>
        <mxCell id="h_y6wSZMJjbolM3k-8ne-104" style="edgeStyle=orthogonalEdgeStyle;rounded=0;orthogonalLoop=1;jettySize=auto;html=1;entryX=0.658;entryY=0;entryDx=0;entryDy=0;entryPerimeter=0;" parent="1" source="h_y6wSZMJjbolM3k-8ne-36" target="h_y6wSZMJjbolM3k-8ne-100" edge="1">
          <mxGeometry relative="1" as="geometry" />
        </mxCell>
        <mxCell id="h_y6wSZMJjbolM3k-8ne-105" style="edgeStyle=orthogonalEdgeStyle;rounded=0;orthogonalLoop=1;jettySize=auto;html=1;entryX=0.311;entryY=0;entryDx=0;entryDy=0;entryPerimeter=0;" parent="1" source="h_y6wSZMJjbolM3k-8ne-35" target="h_y6wSZMJjbolM3k-8ne-100" edge="1">
          <mxGeometry relative="1" as="geometry" />
        </mxCell>
        <mxCell id="h_y6wSZMJjbolM3k-8ne-106" value="" style="verticalLabelPosition=bottom;verticalAlign=top;html=1;shape=mxgraph.flowchart.parallel_mode;pointerEvents=1" parent="1" vertex="1">
          <mxGeometry x="354" y="875" width="95" height="40" as="geometry" />
        </mxCell>
        <mxCell id="4HyyJ4rNVpIl5NY7WBXl-1" value="&lt;p style=&quot;line-height: 1px; margin-bottom: 0cm; background: transparent; font-size: medium; text-align: start;&quot;&gt;Часть действий встраиваются из библиотеки действий.&lt;/p&gt;&lt;p style=&quot;line-height: 1px; margin-bottom: 0cm; background: transparent; font-size: medium; text-align: start;&quot;&gt;&lt;br&gt;&lt;/p&gt;&lt;p style=&quot;line-height: 1px; margin-bottom: 0cm; background: transparent; font-size: medium; text-align: start;&quot;&gt;Изначально действия создаются в конкретном приложении.&lt;/p&gt;&lt;p style=&quot;line-height: 1px; margin-bottom: 0cm; background: transparent; font-size: medium; text-align: start;&quot;&gt;При достижении определённого уровня зрелости и абстракции они уходят в библиотеку.&lt;/p&gt;&lt;p style=&quot;line-height: 1px; margin-bottom: 0cm; background: transparent; font-size: medium; text-align: start;&quot;&gt;&lt;br&gt;&lt;/p&gt;" style="text;html=1;align=center;verticalAlign=middle;whiteSpace=wrap;rounded=0;" vertex="1" parent="1">
          <mxGeometry x="59" y="1010" width="710" height="120" as="geometry" />
        </mxCell>
      </root>
    </mxGraphModel>
  </diagram>
</mxfile>
